<svg id="Capa_1" enable-background="new 0 0 512 512" height="512" viewBox="0 0 512 512" width="512" xmlns="http://www.w3.org/2000/svg"><g><path d="m508.231 5.119c-4.479-5.095-9.176-5.102-15.122-5.111-15.994-.025-86.044.017-86.146.017-7.827.005-14.334 6.028-14.943 13.832l-6.023 77.143h-190.01c-8.728 0-15.625 7.437-14.955 16.15l14.399 187.253c-14.853-1.64-30.274 1.035-44.573 8.541l-.254-77.436c0-32.715-28.164-59.33-62.782-59.33h-41.75c-8.284 0-14.999 6.716-14.999 15v45.16c0 32.692 28.126 59.294 62.712 59.33l27.019.235.057 17.524c-55.276-29.941-120.861 14.209-120.861 82.543v33.999c0 50.746 37.59 92.031 83.795 92.031h103.194c9.954 0 19.506-1.92 28.371-5.434 2.725 2.74 6.485 4.434 10.625 4.434h209.986c7.837 0 14.354-6.034 14.955-13.85l29.998-390c.669-8.702-6.217-16.15-14.955-16.15h-49.883l4.761-60.983c32.846-.018 72.577-.027 75.693.002 12.852.402 20.456-14.931 11.691-24.9zm-414.376 250.55c-18.077 0-32.784-13.157-32.784-29.33v-30.16h26.751c18.077 0 32.784 13.157 32.784 29.379l.1 30.345c-36.484-.319-24.293-.234-26.851-.234zm289.799-134.67-4.684 60h-162.172l-4.613-60zm-299.859 361.001c-29.664 0-53.797-27.827-53.797-62.031v-33.999c0-56.404 60.546-83.612 93.613-41.642 6.807 8.639 20.783 7.265 25.748-2.604 33.912-38.304 91.428-10.694 91.428 44.246v33.999c0 34.204-24.133 62.031-53.797 62.031zm338.286-1h-172.431c13.14-16.255 21.135-37.636 21.135-61.031v-33.999c0-35.148-18.036-65.752-44.474-81.248l-7.207-93.722h223.745zm27.691-360.001-4.615 60h-36.098l4.684-60z"/><circle cx="270.982" cy="256" r="15"/><circle cx="375.975" cy="286" r="15"/><circle cx="315.979" cy="406" r="15"/></g></svg>