<?xml version="1.0" encoding="iso-8859-1"?>
<!-- Generator: Adobe Illustrator 19.0.0, SVG Export Plug-In . SVG Version: 6.00 Build 0)  -->
<svg version="1.1" id="Capa_1" xmlns="http://www.w3.org/2000/svg" xmlns:xlink="http://www.w3.org/1999/xlink" x="0px" y="0px"
	 viewBox="0 0 480 480" style="enable-background:new 0 0 480 480;" xml:space="preserve">
<g>
	<g>
		<path d="M424,232h-16V96c-0.057-52.996-43.004-95.943-96-96h-72c-52.996,0.057-95.943,43.004-96,96v51.032
			c-42.356,11-71.945,49.207-72,92.968v48H56c-4.418,0-8,3.582-8,8v176c0,4.418,3.582,8,8,8h48c4.418,0,8-3.582,8-8V296
			c0-4.418-3.582-8-8-8H88v-48c0.046-34.925,22.699-65.802,56-76.328V240c0,53.019,42.981,96,96,96s96-42.981,96-96
			s-42.981-96-96-96h-72c-2.693,0-5.36,0.112-8,0.336V96c0.049-44.163,35.837-79.951,80-80h72c44.163,0.049,79.952,35.837,80,80v136
			h-16c-4.418,0-8,3.582-8,8v176c0,4.418,3.582,8,8,8h48c4.418,0,8-3.582,8-8V240C432,235.582,428.418,232,424,232z M96,464H64v-16
			h32V464z M96,304v128H64V304H96z M168,160h72c44.183,0,80,35.817,80,80c0,44.183-35.817,80-80,80s-80-35.817-80-80v-79.6
			C162.632,160.136,165.304,160,168,160z M416,408h-32v-16h32V408z M416,376h-32V248h32V376z"/>
	</g>
</g>
<g>
</g>
<g>
</g>
<g>
</g>
<g>
</g>
<g>
</g>
<g>
</g>
<g>
</g>
<g>
</g>
<g>
</g>
<g>
</g>
<g>
</g>
<g>
</g>
<g>
</g>
<g>
</g>
<g>
</g>
</svg>
